<?xml version="1.0" standalone="no"?>
<!DOCTYPE svg PUBLIC "-//W3C//DTD SVG 20010904//EN"
 "http://www.w3.org/TR/2001/REC-SVG-20010904/DTD/svg10.dtd">
<svg version="1.0" xmlns="http://www.w3.org/2000/svg"
 width="756.000000pt" height="756.000000pt" viewBox="0 0 756.000000 756.000000"
 preserveAspectRatio="xMidYMid meet">
<metadata>
Created by potrace 1.14, written by Peter Selinger 2001-2017
</metadata>
<g transform="translate(0.000000,756.000000) scale(0.100000,-0.100000)"
fill="#000000" stroke="none">
<path d="M1519 5260 c-4 -36 2 -108 17 -200 17 -107 91 -300 148 -383 14 -21
26 -42 26 -47 0 -6 4 -10 8 -10 4 0 16 -14 27 -32 25 -42 179 -195 235 -233
25 -16 47 -32 50 -35 17 -17 159 -90 175 -90 7 0 15 -4 17 -8 4 -11 172 -60
233 -68 28 -4 59 -9 70 -11 11 -2 117 -6 235 -8 118 -2 230 -8 249 -14 19 -6
37 -8 42 -6 4 3 10 1 14 -5 3 -5 15 -10 26 -10 24 0 107 -41 169 -83 130 -88
244 -252 275 -396 3 -12 7 -30 10 -42 2 -11 5 -41 6 -65 2 -25 8 -48 13 -52
13 -7 436 -10 441 -2 2 3 6 32 9 65 21 205 129 381 308 502 35 23 66 39 70 37
5 -3 8 0 8 5 0 6 9 11 19 11 11 0 22 4 26 9 15 26 155 43 360 46 116 1 233 6
260 10 65 9 192 41 236 58 19 8 43 18 54 22 11 4 25 9 30 10 6 2 34 17 63 34
29 17 55 31 58 31 12 0 163 122 213 171 142 141 250 333 295 524 27 113 28
116 32 198 l5 77 -226 0 c-124 0 -225 -3 -226 -7 -1 -5 -2 -19 -4 -33 -15
-147 -43 -227 -123 -350 -93 -144 -301 -269 -476 -286 -17 -1 -114 -3 -216 -4
-213 -2 -280 -10 -405 -46 -138 -40 -322 -136 -405 -211 -59 -52 -132 -126
-154 -156 l-28 -36 -101 103 c-121 122 -179 164 -328 237 -54 27 -161 66 -204
75 -122 25 -186 31 -361 33 -110 1 -212 4 -225 6 -333 43 -586 317 -598 648
l-1 27 -225 0 c-143 0 -225 -4 -226 -10z"/>
<path d="M2355 3449 c-22 -4 -50 -10 -63 -13 -45 -10 -140 -68 -185 -114 -277
-286 -87 -755 313 -773 186 -8 383 131 436 308 24 78 33 123 23 117 -5 -3 -5
6 0 19 6 14 8 27 6 29 -2 2 -6 21 -9 43 -14 104 -52 178 -129 256 -102 104
-260 156 -392 128z"/>
<path d="M5045 3447 c-22 -5 -47 -11 -55 -14 -8 -4 -17 -7 -20 -7 -26 -5 -124
-74 -160 -112 -236 -256 -120 -661 216 -749 204 -54 424 48 518 240 35 73 38
83 42 185 5 123 -33 227 -116 323 -49 56 -165 121 -240 134 -51 8 -146 9 -185
0z"/>
<path d="M3446 2993 c-3 -7 -1 -15 3 -18 5 -2 11 -17 14 -32 5 -29 11 -48 72
-248 46 -152 64 -214 71 -244 3 -14 8 -29 12 -35 3 -6 7 -15 8 -21 2 -10 35
-121 76 -255 10 -36 20 -69 22 -75 1 -5 13 -44 26 -85 26 -81 26 -84 30 -102
2 -12 15 23 24 62 4 14 144 484 186 620 67 221 113 374 116 385 2 6 6 20 10
33 4 15 2 22 -7 23 -8 1 -159 2 -336 3 -246 1 -324 -2 -327 -11z"/>
</g>
</svg>
