<?xml version="1.0" encoding="utf-8"?>
<!-- Generator: Adobe Illustrator 16.0.3, SVG Export Plug-In . SVG Version: 6.00 Build 0)  -->
<!DOCTYPE svg PUBLIC "-//W3C//DTD SVG 1.1//EN" "http://www.w3.org/Graphics/SVG/1.1/DTD/svg11.dtd">
<svg version="1.1" id="Layer_1" xmlns="http://www.w3.org/2000/svg"  x="0px" y="0px"
	 width="311.811px" height="97.5px" viewBox="0 0 311.811 97.5" enable-background="new 0 0 311.811 97.5" xml:space="preserve">
<g>
	<path fill="#40556a" d="M155.454,43.343c-0.924-1.824-2.488-3.459-3.75-5.143c-0.301-0.41-0.512-1.686,0.43-1.344
		c0.623,0.23,1.354,0.4,2.035,0.15c0.521-0.191,1.344-0.141,1.344,0.551v0.922v3.248C155.512,42.151,155.573,43.003,155.454,43.343z
		"/>
	<polygon fill="#40556a" points="154.741,33.247 153.608,33.028 153.649,34.37 152.706,33.298 152.043,34.491 151.881,33.216
		150.551,33.599 151.432,32.455 150.34,31.774 151.563,31.594 151.163,30.381 152.254,31.073 152.665,29.839 153.157,31.022 
		154.29,30.29 153.758,31.463 155.061,31.663 153.889,32.296 	"/>
	<polygon fill="#40556a" points="161.127,33.247 159.995,33.028 160.034,34.37 159.092,33.298 158.43,34.491 158.27,33.216
		156.936,33.599 157.819,32.455 156.725,31.774 157.948,31.594 157.547,30.381 158.641,31.073 159.051,29.839 159.543,31.022 
		160.676,30.29 160.145,31.463 161.448,31.663 160.276,32.296 	"/>
	<path fill="#40556a" d="M159.915,38.13c-1.266,1.684-2.828,3.318-3.75,5.143c-0.121-0.34-0.061-1.193-0.061-1.613v-3.248v-0.922
		c0-0.693,0.822-0.742,1.344-0.553c0.682,0.252,1.414,0.08,2.035-0.148C160.426,36.446,160.215,37.718,159.915,38.13z"/>
	<path fill="#40556a" d="M161.959,60.255c-0.531,0.953-1.484,1.475-2.105,2.156c-1.154,1.244-1.594,2.025-1.725,3.098
		c-1.383-2.506-4.15-9.875,3.619-18.377c-1.193,2.307-2.115,4.361-2.275,6.408c-0.09,1.211,0.242,2.184,0.852,3.287
		C161.168,57.769,162.249,58.913,161.959,60.255z"/>
	<path fill="#40556a" d="M153.508,65.659c-0.262-1.033-0.703-2.105-1.836-3.238c-0.752-0.762-1.975-1.402-2.273-2.246
		c-0.191-0.963,0.951-1.984,1.723-3.148c0.672-1.012,1.092-2.193,0.951-3.568c-0.24-2.195-1.043-3.93-2.355-6.105
		C157.497,53.829,155.061,63.233,153.508,65.659z"/>
	<path fill="#40556a" d="M164.254,64.536c-0.1,1.293,0.031,2.967-1.082,2.908c-0.49-0.02-0.982-0.611-2.004-0.643
		c-0.592,0.021-1.244,0.141-1.836,0.342c-0.912,0.32-0.201-2.688,1.314-3.871c0.27-0.199,1.111-0.711,2.063-2.135
		c0.434-0.641,0.582-0.631,0.814,0.221C163.995,62.562,164.063,63.163,164.254,64.536z"/>
	<path fill="#40556a" d="M152.204,67.323c-0.59-0.199-1.242-0.322-1.834-0.34c-1.021,0.029-1.514,0.621-2.006,0.641
		c-1.111,0.061-0.98-1.613-1.082-2.906c0.191-1.375,0.262-1.977,0.732-3.18c0.23-0.852,0.381-0.861,0.811-0.219
		c0.953,1.422,1.795,1.934,2.066,2.135C152.405,64.636,153.118,67.644,152.204,67.323z"/>
	<path fill="#40556a" d="M161.889,70.511c-0.611-0.539-1.404-1.111-1.914-1.693c-0.322-0.361,0.141-0.873,0.619-0.902
		c0.674-0.049,1.264,0.029,2.016,0.24C163.975,68.536,162.36,69.499,161.889,70.511z"/>
	<path fill="#40556a" d="M151.563,68.786c-0.813,0.813-1.293,1.596-1.773,1.785c-0.432-0.932-2.168-2.135-0.814-2.234
		c0.834-0.061,1.176-0.352,1.746-0.412C151.403,67.845,152.155,68.196,151.563,68.786z"/>
	<path fill="#40556a" d="M177.956,22.764l-0.194,0.001c-2.214,0-4.506-0.249-6.813-0.741c-6.873-1.471-12.469-4.568-15.045-8.316
		l-0.627-0.002c-2.643,3.891-8.582,7.199-15.242,8.469c-2.227,0.422-4.443,0.615-6.58,0.588c-3.119,7.237-3.543,16.724-3.543,25.075
		c0,8.902,4.539,18.584,13.125,28c5.363,5.885,10.684,9.92,12.584,11.289c1.904-1.373,7.234-5.42,12.583-11.289
		c8.587-9.418,13.125-19.1,13.125-28C181.328,38.929,180.915,29.737,177.956,22.764z M159.352,78.675l-3.549-4.551l-3.569,4.621
		c-5.353-4.842-8.761-11.43-9.304-19.971c0.18-7.75,3.229-13.254,8.492-17.666c-10.236-6.104-4.842-19.196,4.401-19.196
		c8.862,0,14.996,12.2,4.462,19.108c5.271,4.35,8.49,10.053,8.67,17.805C168.415,67.366,164.747,73.804,159.352,78.675z"/>
	<path fill="#40556a" d="M181.353,20.391l-0.814-1.773l-1.951,0.064c-0.271,0.014-0.549,0.016-0.826,0.016
		c-1.938,0-3.941-0.219-5.961-0.652c-7.817-1.674-12.987-5.662-13.29-8.396l-5.842-0.021c-0.344,2.967-5.808,7.109-13.395,8.549
		c-1.815,0.346-3.625,0.521-5.377,0.521c-0.352,0-0.705-0.008-1.048-0.023l-1.956-0.08l-0.824,1.777
		c-3.724,8.021-4.227,18.388-4.227,27.466c0,9.932,4.904,20.563,14.188,30.744c6.865,7.531,13.656,12.17,13.943,12.365l1.646,1.117
		l1.646-1.117c0.287-0.195,7.076-4.834,13.94-12.365c9.281-10.182,14.189-20.813,14.189-30.744
		C185.396,38.163,184.906,28.14,181.353,20.391z M168.942,76.511c-5.718,6.273-11.421,10.494-13.033,11.639l-0.289,0.205
		l-0.289-0.205c-1.607-1.141-7.299-5.348-13.033-11.639c-8.758-9.604-13.387-19.52-13.387-28.674c0-8.574,0.447-18.34,3.762-25.784
		l0.136-0.305l0.333,0.008c2.141,0.049,4.431-0.135,6.706-0.564c6.534-1.244,12.319-4.486,14.739-8.258l0.148-0.23l1.707,0.006
		l0.148,0.227c2.327,3.578,7.909,6.686,14.566,8.109c2.238,0.479,4.461,0.721,6.604,0.721l0.847-0.008l0.133,0.303
		c3.152,7.178,3.587,16.63,3.587,25.776C182.328,56.991,177.699,66.905,168.942,76.511z"/>
	<g>
		<path fill="#40556a" d="M269.1,44.737c0,0.799,0.619,1.219,1.42,1.219c0.961,0,2.221-0.92,2.221-2.18v-0.939
			C269.799,43.315,269.1,43.796,269.1,44.737z"/>
		<path fill="#40556a" d="M239.549,56.274c-0.859,0-1.52,0.58-1.52,1.701c0,1.1,0.74,1.82,1.66,1.82c1.041,0,1.521-0.76,1.521-1.6
			C241.211,56.915,240.471,56.274,239.549,56.274z"/>
		<path fill="#40556a" d="M259.399,45.956c0.961,0,2.221-0.92,2.221-2.18v-0.939c-2.939,0.479-3.641,0.959-3.641,1.9
			C257.979,45.536,258.6,45.956,259.399,45.956z"/>
		<path fill="#40556a" d="M250.93,56.515c-1.199,0-1.961,0.66-1.961,1.941h3.922C252.891,57.175,252.131,56.515,250.93,56.515z"/>
		<path fill="#40556a" d="M299.202,31.821v-1.926c-0.916-0.061-1.645-0.874-1.65-1.881H184.838
			c1.321,6.221,1.558,13.105,1.558,19.822c0,8.256-3.287,16.961-9.569,25.488h120.75c0.115-0.885,0.789-1.568,1.625-1.623v-1.926
			c-0.92-0.061-1.65-0.881-1.65-1.893s0.73-1.832,1.65-1.891v-1.928c-0.92-0.061-1.65-0.879-1.65-1.891s0.73-1.832,1.65-1.893
			v-1.926c-0.92-0.061-1.65-0.881-1.65-1.893s0.73-1.83,1.65-1.891v-1.928c-0.906-0.059-1.625-0.855-1.646-1.848
			c0.021-0.992,0.74-1.789,1.646-1.848v-1.926c-0.92-0.061-1.65-0.881-1.65-1.893s0.73-1.83,1.65-1.891v-1.926
			c-0.92-0.061-1.65-0.881-1.65-1.893s0.73-1.832,1.65-1.893v-1.926c-0.92-0.061-1.65-0.879-1.65-1.891
			C297.551,32.7,298.282,31.882,299.202,31.821z M251.78,33.993c1.02,0,1.561,0.682,1.561,1.641c0,0.861-0.561,1.561-1.461,1.561
			c-0.959,0-1.619-0.619-1.619-1.58C250.26,34.714,250.799,33.993,251.78,33.993z M249.7,47.138c0.34,0,0.92-0.141,0.92-0.881
			v-6.381c0-0.801-0.439-0.92-0.92-0.92v-0.381c1.32-0.16,2.84-0.58,3.641-1v8.582c0,0.9,0.5,0.98,0.92,0.98v0.379
			c-0.76-0.061-1.52-0.119-2.26-0.119c-0.762,0-1.502,0.059-2.301,0.119V47.138z M242.879,38.075h1.08v-1.34
			c0.74-0.301,1.621-0.941,2.201-1.58h0.52v2.92h2.18v1.52h-2.18v4.881c0,1.041,0.459,1.48,1.221,1.48
			c0.479,0,0.879-0.18,1.199-0.439l-0.219,1.74c-0.602,0.301-1.301,0.461-2.082,0.461c-2.42,0-2.84-1.541-2.84-3.021v-5.102h-1.08
			V38.075z M238.799,37.874c0.842,0,1.682,0.141,2.441,0.381c0.08,0.92,0.119,1.801,0.18,2.682h-0.379
			c-0.48-1.24-1.602-1.662-2.881-1.662c-0.66,0-1.5,0.262-1.5,0.941c0,0.959,1.34,1.039,2.68,1.381c1.34,0.34,2.68,0.939,2.68,2.939
			c0,2.561-2.68,3.182-4.4,3.182c-1.301,0-2.381-0.32-3.221-0.682c-0.039-0.92-0.08-1.84-0.119-2.76h0.379
			c0.541,1.439,1.762,2.16,3.201,2.16c0.76,0,1.68-0.42,1.68-1.34c0-0.9-1.34-0.98-2.68-1.301s-2.68-0.879-2.68-2.66
			C234.18,38.694,236.319,37.874,238.799,37.874z M230.68,33.993c1.02,0,1.561,0.682,1.561,1.641c0,0.861-0.561,1.561-1.461,1.561
			c-0.959,0-1.619-0.619-1.619-1.58C229.161,34.714,229.7,33.993,230.68,33.993z M228.6,47.138c0.34,0,0.92-0.141,0.92-0.881v-6.381
			c0-0.801-0.439-0.92-0.92-0.92v-0.381c1.32-0.16,2.84-0.58,3.641-1v8.582c0,0.9,0.5,0.98,0.92,0.98v0.379
			c-0.76-0.061-1.52-0.119-2.26-0.119c-0.762,0-1.502,0.059-2.301,0.119V47.138z M221.02,38.575c1.061-0.221,2.381-0.541,3.52-1
			l-0.039,2.041h0.039c0.441-1.201,1.641-1.742,2.641-1.742c0.121,0,0.42,0.041,0.701,0.102l0.119,2.98h-0.219
			c-0.32-0.66-0.701-0.961-1.441-0.961c-1.199,0-1.68,1.281-1.68,2.32v4.041c0,0.52,0.74,0.74,1.18,0.781v0.379
			c-0.801-0.061-1.6-0.119-2.439-0.119c-0.861,0-1.602,0.059-2.342,0.119v-0.379c0.541,0,0.881-0.16,0.881-1.24v-6.021
			c0-0.801-0.439-0.92-0.92-0.92V38.575z M195.679,39.274h-2.16v-0.799c0-2.682,2.102-3.762,2.301-3.762c0.061,0,0.18,0.1,0.18,0.16
			c0,0.18-0.561,1.121-0.561,2.58C195.439,37.896,195.56,38.655,195.679,39.274z M197.68,41.116c0-3.48,2.439-6.842,7.121-6.842
			c1.641,0,2.861,0.32,3.32,0.5c0,1.359,0.02,2.66,0.121,3.961h-0.381c-0.32-1.66-1.621-2.541-3.301-2.541
			c-2.281,0-4.041,1.781-4.041,4.781c0,2.26,1.881,4.82,4.521,4.82c1.119,0,2.721-0.52,3.801-1.42l-0.221,2.141
			c-1.24,0.939-3.02,1.32-4.18,1.32C200.12,47.837,197.68,44.517,197.68,41.116z M213.292,51.974c-0.68,0.021-0.92,0.281-0.92,0.842
			v10.48c0,0.561,0.24,0.82,0.92,0.842v0.379c-0.879-0.061-1.66-0.119-2.4-0.119s-1.52,0.059-2.4,0.119v-0.379
			c0.682-0.021,0.92-0.281,0.92-0.842v-4.6h-4.84v4.6c0,0.561,0.24,0.82,0.92,0.842v0.379c-0.881-0.061-1.66-0.119-2.4-0.119
			s-1.52,0.059-2.4,0.119v-0.379c0.68-0.021,0.92-0.281,0.92-0.842v-10.48c0-0.561-0.24-0.82-0.92-0.842v-0.379
			c0.881,0.059,1.66,0.119,2.4,0.119s1.52-0.061,2.4-0.119v0.379c-0.68,0.021-0.92,0.281-0.92,0.842v3.959h4.84v-3.959
			c0-0.561-0.238-0.82-0.92-0.842v-0.379c0.881,0.059,1.66,0.119,2.4,0.119s1.521-0.061,2.4-0.119V51.974z M214.5,47.138v0.379
			c-0.74-0.061-1.48-0.119-2.221-0.119c-0.859,0-1.6,0.059-2.381,0.119v-0.379c0.58,0,0.92-0.16,0.92-1.24v-9.963
			c0-1.461-0.32-1.52-0.92-1.66v-0.381c1.221-0.139,2.461-0.539,3.701-1.1c0,0.52-0.061,1.08-0.061,1.66v4.861h0.041
			c0.219-0.48,0.58-0.84,1-1.08c0.439-0.24,0.961-0.361,1.461-0.361c1.58,0,2.66,0.682,2.66,3.342v4.881
			c0,0.721,0.26,1.041,0.92,1.041v0.379c-0.6-0.061-1.18-0.119-1.82-0.119c-0.66,0-1.24,0.059-1.82,0.119v-5.881
			c0-1.381-0.561-1.641-1.201-1.641c-1.039,0-1.24,1-1.24,1.881v4.4C213.54,46.978,214.081,47.138,214.5,47.138z M224.631,64.517
			c-0.6-0.061-1.18-0.119-1.82-0.119c-0.42,0-0.939,0.059-1.6,0.119l0.059-1.9h-0.039c-0.24,1.24-1.182,2.102-2.621,2.102
			c-1.58,0-2.781-0.641-2.781-3.141v-4.662c0-0.76-0.459-1-0.92-0.959v-0.381c1.201-0.141,2.4-0.48,3.742-1
			c-0.08,0.5-0.102,0.859-0.102,1.221v5.58c0.061,0.721,0.301,1.221,1.021,1.221c0.82,0,1.42-0.6,1.42-1.801v-3.881
			c0-0.76-0.461-1-0.881-0.959v-0.381c1.16-0.141,2.361-0.48,3.701-1c-0.08,0.5-0.1,0.859-0.1,1.221v7.301
			c0,0.721,0.26,1.041,0.92,1.041V64.517z M233.631,56.194l-2.541,7.902c-1.061,3.32-2.24,4.16-3.521,4.16
			c-0.42,0-0.84-0.139-1.18-0.398l-0.119-2.842h0.379c0.061,0.521,0.34,1,0.941,1c0.979,0,1.68-0.76,1.68-1.379
			c0-0.201-0.18-0.602-0.561-1.521l-2.84-7.021c-0.16-0.379-0.34-0.52-0.801-0.641v-0.379c0.76,0.061,1.541,0.119,2.34,0.119
			c0.781,0,1.582-0.059,2.361-0.119v0.379c-0.34,0.041-0.92,0-0.92,0.48c0,0.16,0.119,0.602,0.32,1.16l1.439,4.221h0.041l0.92-3.48
			c0.199-0.779,0.4-1.42,0.4-1.641c0-0.5-0.32-0.719-0.9-0.74v-0.379c0.58,0.061,1.141,0.119,1.721,0.119
			c0.559,0,1.139-0.059,1.68-0.119v0.379C233.911,55.495,233.811,55.636,233.631,56.194z M243.692,57.896
			c0,2.5-2.162,3.42-4.322,3.42c-1.279,0-1.76-0.18-2.08-0.318c-0.48,0.139-0.6,0.439-0.6,0.639c0,0.381,0.279,0.641,1.9,0.641h2.5
			c2.4,0,3.74,0.881,3.74,2.521c0,2.26-2.699,3.459-5.5,3.459c-2.041,0-3.602-0.799-3.602-1.959c0-0.24,0.061-0.461,0.141-0.701
			l2.439-0.639c-0.1,0.238-0.1,0.479-0.1,0.799c0,0.521,0.461,1.221,1.84,1.221c1.32,0,2.301-0.52,2.301-1.301
			c0-0.879-0.74-1.08-2.619-1.08c-0.9,0-1.502,0.041-2.121,0.041c-2.301,0-3.16-0.92-3.16-2.24c0-0.381,0.139-0.922,0.559-1.121
			l1.521-0.721c-0.781-0.619-1.1-1.6-1.1-2.34c0-2.24,1.82-3.342,4.301-3.342c1.119,0,2.52,0.441,3.4,0.441
			c0.52,0,1.301-0.1,1.959-0.221l-0.439,1.461l-1.279,0.08C243.571,56.995,243.692,57.476,243.692,57.896z M255.731,59.976h-6.842
			c0,2.24,1.842,2.98,3.221,2.98c1.021,0,2.422-0.539,3.381-1.219l-0.34,1.9c-1.039,0.84-2.48,1.08-3.74,1.08
			c-2.961,0-5.361-1.561-5.361-5.002c0-2.74,2.02-4.842,4.941-4.842c2.82,0,4.74,1.701,4.74,4.361V59.976z M255.258,44.917
			c0-2.701,2.621-3.002,4.381-3.221c1.842-0.221,1.98-0.281,1.98-0.9c0-1.021-0.859-1.4-1.82-1.4c-1.6,0-2.359,0.4-3.08,1.859
			h-0.381l0.08-2.721c1.08-0.379,2.24-0.66,3.602-0.66c2.32,0,4.32,0.602,4.32,3.482v4.82c0,0.68,0.4,0.961,1.041,0.961v0.379
			c-0.6-0.061-1.201-0.119-1.781-0.119c-0.539,0-1.141,0.059-1.74,0.119v-1.52l-0.039,0.02c-1,1.461-1.9,1.701-3.621,1.701
			S255.258,46.657,255.258,44.917z M266.872,64.517c-0.6-0.061-1.18-0.119-1.82-0.119c-0.66,0-1.24,0.059-1.82,0.119v-5.881
			c0-1.381-0.561-1.641-1.201-1.641c-0.92,0-1.24,1.121-1.24,2v4.281c0,0.701,0.541,0.861,0.961,0.861v0.379
			c-0.74-0.061-1.48-0.119-2.221-0.119c-0.859,0-1.6,0.059-2.34,0.119v-0.379c0.539,0,0.879-0.16,0.879-1.24v-6.021
			c0-0.801-0.439-0.92-0.92-0.92v-0.381c1.061-0.221,2.381-0.541,3.521-1l-0.041,2.041h0.041c0.439-1.201,1.641-1.742,2.641-1.742
			c1.561,0,2.641,0.682,2.641,3.342v4.881c0,0.721,0.26,1.041,0.92,1.041V64.517z M271.53,64.718c-1.301,0-2.381-0.32-3.221-0.682
			c-0.039-0.92-0.08-1.84-0.119-2.76h0.379c0.541,1.439,1.762,2.16,3.201,2.16c0.76,0,1.68-0.42,1.68-1.34
			c0-0.9-1.34-0.98-2.68-1.301s-2.68-0.879-2.68-2.66c0-2.441,2.139-3.262,4.619-3.262c0.842,0,1.682,0.141,2.441,0.381
			c0.08,0.92,0.119,1.801,0.18,2.682h-0.379c-0.48-1.24-1.602-1.662-2.881-1.662c-0.66,0-1.5,0.262-1.5,0.941
			c0,0.959,1.34,1.039,2.68,1.381c1.34,0.34,2.68,0.939,2.68,2.939C275.93,64.097,273.25,64.718,271.53,64.718z M276.5,47.517
			c-0.6-0.061-1.199-0.119-1.779-0.119c-0.541,0-1.141,0.059-1.74,0.119v-1.52l-0.041,0.02c-1,1.461-1.9,1.701-3.621,1.701
			c-1.719,0-2.939-1.061-2.939-2.801c0-2.701,2.621-3.002,4.381-3.221c1.84-0.221,1.98-0.281,1.98-0.9c0-1.021-0.861-1.4-1.82-1.4
			c-1.602,0-2.361,0.4-3.082,1.859h-0.379l0.08-2.721c1.08-0.379,2.24-0.66,3.6-0.66c2.322,0,4.322,0.602,4.322,3.482v4.82
			c0,0.68,0.4,0.961,1.039,0.961V47.517z M279.911,52.515c0,2.68-2.102,3.76-2.301,3.76c-0.061,0-0.18-0.1-0.18-0.16
			c0-0.18,0.559-1.119,0.559-2.58c0-0.439-0.119-1.199-0.24-1.82h2.162V52.515z M287.42,47.517c-0.6-0.061-1.18-0.119-1.82-0.119
			c-0.66,0-1.24,0.059-1.82,0.119v-5.881c0-1.381-0.559-1.641-1.199-1.641c-0.92,0-1.24,1.121-1.24,2v4.281
			c0,0.701,0.539,0.861,0.959,0.861v0.379c-0.74-0.061-1.479-0.119-2.219-0.119c-0.861,0-1.602,0.059-2.342,0.119v-0.379
			c0.541,0,0.881-0.16,0.881-1.24v-6.021c0-0.801-0.439-0.92-0.92-0.92v-0.381c1.061-0.221,2.381-0.541,3.52-1l-0.039,2.041h0.039
			c0.441-1.201,1.641-1.742,2.641-1.742c1.561,0,2.641,0.682,2.641,3.342v4.881c0,0.721,0.26,1.041,0.92,1.041V47.517z"/>
	</g>
	<g>
		<path fill="#40556a" d="M103.07,36.507c-0.981,0-1.194,1.023-1.194,1.557h2.304C104.179,37.509,103.999,36.507,103.07,36.507z"/>
		<path fill="#40556a" d="M90.004,50.747c0,0.426,0.234,0.906,0.778,0.906c0.555,0,1.045-0.512,1.216-0.662v-1.375
			C91.53,49.626,90.004,49.626,90.004,50.747z"/>
		<path fill="#40556a" d="M74.381,51.653c0.949,0,1.238-0.863,1.238-2.09c0-1.047-0.289-2.006-1.248-2.006
			c-0.961,0-1.248,0.918-1.248,1.973C73.124,50.747,73.401,51.653,74.381,51.653z"/>
		<path fill="#40556a" d="M97.499,40.548c0.555,0,1.023-0.469,1.28-0.629v-3.008c-0.341-0.182-0.683-0.352-1.216-0.352
			c-0.918,0-1.003,1.045-1.003,2.08C96.56,39.534,96.635,40.548,97.499,40.548z"/>
		<path fill="#40556a" d="M91.24,61.442c-0.772,0-0.813,0.832-0.842,1.109h1.555C91.953,62.146,91.922,61.442,91.24,61.442z"/>
		<path fill="#40556a" d="M118.56,63.065c0,0.902,0.198,1.467,0.792,1.467c0.505,0,0.743-0.248,0.842-0.338v-2.336
			c-0.129-0.1-0.337-0.297-0.782-0.297C118.818,61.562,118.56,62.116,118.56,63.065z"/>
		<path fill="#40556a" d="M82.481,61.442c-0.772,0-0.813,0.832-0.842,1.109h1.555C83.194,62.146,83.164,61.442,82.481,61.442z"/>
		<path fill="#40556a" d="M107.088,50.747c0,0.426,0.234,0.906,0.779,0.906c0.555,0,1.045-0.512,1.215-0.662v-1.375
			C108.614,49.626,107.088,49.626,107.088,50.747z"/>
		<path fill="#40556a" d="M104.424,63.065c0,0.902,0.198,1.467,0.792,1.467c0.506,0,0.743-0.248,0.842-0.338v-2.336
			c-0.129-0.1-0.336-0.297-0.782-0.297C104.682,61.562,104.424,62.116,104.424,63.065z"/>
		<path fill="#40556a" d="M72.8,61.442c-0.772,0-0.813,0.832-0.842,1.109h1.555C73.513,62.146,73.483,61.442,72.8,61.442z"/>
		<path fill="#40556a" d="M63.212,63.165c0,1.119,0.188,1.594,0.832,1.594c0.445,0,0.613-0.217,0.732-0.346V61.71
			c-0.089-0.051-0.258-0.199-0.674-0.199C63.361,61.511,63.212,62.065,63.212,63.165z"/>
		<path fill="#40556a" d="M124.842,47.837c0-6.379,0.25-13.389,1.675-19.822H40.313c-0.006,0.998-0.721,1.805-1.625,1.878v1.932
			c0.908,0.073,1.627,0.886,1.627,1.89c0,1.002-0.719,1.814-1.627,1.889v1.932c0.908,0.072,1.627,0.885,1.627,1.889
			c0,1.002-0.719,1.816-1.627,1.889v1.932c0.908,0.074,1.627,0.887,1.627,1.889c0,1.004-0.719,1.816-1.627,1.891v1.93
			c0.895,0.072,1.602,0.863,1.623,1.846c-0.021,0.982-0.729,1.773-1.623,1.846v1.932c0.908,0.074,1.627,0.887,1.627,1.889
			c0,1.004-0.719,1.816-1.627,1.889v1.932c0.908,0.074,1.627,0.887,1.627,1.891c0,1.002-0.719,1.814-1.627,1.889v1.932
			c0.908,0.074,1.627,0.887,1.627,1.889c0,1.004-0.719,1.816-1.627,1.889v1.932c0.825,0.066,1.486,0.746,1.602,1.621h94.12
			C128.128,64.8,124.842,56.095,124.842,47.837z M103.113,35.845c1.78,0,1.94,1.729,1.94,2.645c0,0.15,0,0.234-0.117,0.234h-3.061
			c0,0.65,0.256,1.824,1.472,1.824c0.693,0,1.248-0.438,1.312-0.438c0.032,0,0.043,0.033,0.064,0.064l0.182,0.447
			c0.01,0.033,0.031,0.055,0.031,0.086c0,0.117-0.896,0.555-1.686,0.555c-1.418-0.01-2.25-1.088-2.25-2.709
			C101,36.985,101.79,35.845,103.113,35.845z M100.161,45.169c0,0.352-0.287,0.65-0.65,0.65s-0.65-0.289-0.65-0.65
			c0-0.363,0.287-0.65,0.65-0.65S100.161,44.817,100.161,45.169z M97.467,35.845c0.66,0,1.023,0.182,1.312,0.363v-2.539
			c0-0.074,0.032-0.117,0.075-0.129l0.521-0.127c0.086-0.021,0.054-0.012,0.129-0.021c0.085,0,0.085,0.086,0.085,0.139v5.898
			c0,0.48,0,0.799,0.117,1.066c0.054,0.127,0.192,0.33,0.192,0.395c0,0.043-0.054,0.064-0.096,0.086l-0.416,0.256
			c-0.043,0.021-0.064,0.031-0.086,0.031c-0.149,0-0.342-0.459-0.384-0.629c-0.257,0.182-0.778,0.629-1.567,0.629
			c-1.143,0-1.664-1.279-1.664-2.602C95.686,37.124,96.229,35.845,97.467,35.845z M91.049,47.61c-0.715,0-1.205,0.342-1.301,0.342
			c-0.033,0-0.064-0.021-0.075-0.053l-0.139-0.373c-0.021-0.055-0.032-0.086-0.032-0.139c0-0.182,0.981-0.492,1.664-0.492
			c1.227,0,1.643,0.598,1.643,1.494v2.09c0,0.672,0.032,0.768,0.128,1.066c0.043,0.129,0.192,0.332,0.192,0.395
			c0,0.043-0.054,0.064-0.096,0.086l-0.416,0.256c-0.043,0.021-0.064,0.033-0.086,0.033c-0.16,0-0.352-0.566-0.405-0.715
			c-0.128,0.117-0.65,0.715-1.536,0.715c-0.842,0-1.387-0.555-1.387-1.504c0-1.803,2.134-1.836,2.795-1.857v-0.383
			C91.999,47.952,91.807,47.61,91.049,47.61z M84.704,36.122c0-0.074,0.032-0.117,0.075-0.129l0.533-0.127
			c0.085-0.021,0.054-0.012,0.128-0.021c0.074,0,0.074,0.086,0.074,0.139v3.701c0,0.459,0.182,0.863,0.875,0.863
			c0.33,0,1.014-0.352,1.216-0.543v-3.883c0-0.074,0.032-0.117,0.075-0.129l0.533-0.127c0.085-0.021,0.053-0.012,0.127-0.021
			c0.075,0,0.075,0.086,0.075,0.139v3.797c0,0.246,0.011,0.48,0.117,0.703c0.064,0.129,0.203,0.342,0.203,0.406
			c0,0.043-0.054,0.064-0.097,0.086l-0.416,0.256c-0.042,0.021-0.063,0.031-0.085,0.031c-0.159,0-0.277-0.385-0.395-0.629
			c-0.299,0.244-0.874,0.629-1.482,0.629c-1.44,0-1.558-0.832-1.558-1.6V36.122z M79.764,33.669c0-0.074,0.031-0.117,0.074-0.129
			l0.533-0.127c0.086-0.021,0.054-0.012,0.129-0.021c0.074,0,0.074,0.086,0.074,0.139v4.811l2.123-2.41
			c0.031-0.033,0.063-0.086,0.117-0.086c0.042,0,0.085,0.043,0.127,0.064l0.374,0.256c0.021,0.021,0.063,0.031,0.063,0.074
			c0,0.053-0.043,0.096-0.074,0.129l-1.803,1.994l1.877,2.377c0.021,0.033,0.075,0.076,0.075,0.129c0,0.043-0.043,0.053-0.063,0.074
			l-0.374,0.256c-0.042,0.021-0.085,0.064-0.128,0.064c-0.053,0-0.096-0.053-0.117-0.086l-2.176-2.688h-0.021v2.496
			c0,0.086-0.043,0.129-0.128,0.129h-0.555c-0.085,0-0.128-0.043-0.128-0.129V33.669z M74.92,40.622l0.149-0.33
			c0.032-0.074,0.063-0.096,0.096-0.096c0.097,0,0.651,0.373,1.376,0.373c0.459,0,0.854-0.256,0.854-0.768
			c0-1.109-2.368-0.863-2.368-2.475c0-0.863,0.672-1.482,1.61-1.482c0.363,0,0.981,0.17,1.259,0.32
			c0.085,0.043,0.118,0.084,0.118,0.139c0,0.031-0.033,0.064-0.043,0.105l-0.139,0.289c-0.043,0.084-0.064,0.127-0.129,0.127
			c-0.074,0-0.521-0.287-1.076-0.287c-0.428,0-0.79,0.213-0.79,0.703c0,1.174,2.368,0.844,2.368,2.508
			c0,1.002-0.789,1.514-1.707,1.514c-0.512,0-1.621-0.299-1.621-0.512C74.877,40.698,74.899,40.665,74.92,40.622z M76.494,49.573
			c0,1.494-0.63,2.742-2.187,2.742c-1.439,0-2.059-1.164-2.059-2.689c0-1.471,0.619-2.73,2.165-2.73
			C75.875,46.896,76.494,48.069,76.494,49.573z M72.838,33.466c0.363,0,0.651,0.299,0.651,0.65s-0.288,0.65-0.651,0.65
			c-0.362,0-0.65-0.287-0.65-0.65C72.188,33.755,72.476,33.466,72.838,33.466z M71.527,36.122c0-0.086,0.043-0.129,0.128-0.129
			h1.504c0.117,0,0.139,0.064,0.139,0.16v4.832c0,0.086-0.043,0.129-0.128,0.129h-0.555c-0.085,0-0.128-0.043-0.128-0.129v-4.33
			h-0.832c-0.085,0-0.128-0.043-0.128-0.129V36.122z M63.952,33.894l0.523-0.129c0.042-0.01,0.105-0.031,0.139-0.031
			c0.053,0,0.074,0.096,0.084,0.191l0.907,5.193c0.032,0.193,0.063,0.844,0.085,1.131h0.021c0.032-0.416,0.054-0.799,0.129-1.193
			l1.023-5.121c0.01-0.063,0.021-0.127,0.096-0.127h0.672c0.074,0,0.096,0.064,0.107,0.127l0.885,5.27
			c0.043,0.268,0.106,0.672,0.106,1.045h0.021c0.021-0.352,0.021-0.768,0.075-1.055l0.971-5.27c0.021-0.096,0.031-0.191,0.084-0.191
			c0.033,0,0.097,0.021,0.15,0.031l0.512,0.129c0.074,0.02,0.117,0.031,0.117,0.084c0,0.033-0.011,0.086-0.021,0.129l-1.461,6.953
			c-0.011,0.055-0.021,0.129-0.107,0.129h-0.799c-0.075,0-0.097-0.043-0.107-0.129l-0.896-5.898h-0.021l-1.109,5.898
			c-0.011,0.055-0.032,0.129-0.096,0.129h-0.769c-0.096,0-0.106-0.064-0.106-0.129l-1.312-6.953
			c-0.011-0.043-0.021-0.096-0.021-0.129C63.834,33.913,63.92,33.903,63.952,33.894z M49.364,65.749
			c-1.01,0-2.069-0.436-2.069-0.594c0-0.029,0.03-0.098,0.05-0.158l0.228-0.654c0.02-0.059,0.069-0.098,0.108-0.098
			c0.061,0,0.793,0.436,1.645,0.436c0.555,0,0.891-0.297,0.891-0.912c0-0.881-1.01-0.971-2.02-1.584
			c-0.525-0.316-0.861-0.713-0.861-1.535c0-1.426,1.029-2.02,2.178-2.02c0.941,0,1.912,0.436,1.912,0.604
			c0,0.029-0.01,0.07-0.05,0.148l-0.327,0.654c-0.029,0.059-0.068,0.1-0.108,0.1c-0.06,0-0.674-0.438-1.387-0.438
			c-0.456,0-0.931,0.18-0.931,0.773c0,0.752,1.158,0.891,2.029,1.535c0.506,0.377,0.853,0.9,0.853,1.654
			C51.503,64.919,50.612,65.749,49.364,65.749z M54.307,65.749c-1.277,0-1.277-1-1.277-1.91V61.61h-0.703
			c-0.119,0-0.139-0.029-0.139-0.139v-0.643c0-0.109,0.02-0.139,0.139-0.139h0.703v-1.248c0-0.129,0.02-0.158,0.158-0.18
			l0.871-0.117c0.03,0,0.07-0.012,0.129-0.012c0.09,0,0.1,0.051,0.1,0.17v1.387h1.129c0.089,0,0.168,0,0.168,0.107
			c0,0.02,0,0.041-0.01,0.08l-0.129,0.584c-0.029,0.139-0.06,0.148-0.178,0.148h-0.98v2.396c0,0.316,0,0.604,0.336,0.604
			c0.396,0,0.645-0.188,0.783-0.188c0.039,0,0.068,0.02,0.078,0.059l0.199,0.813c0.01,0.051,0.02,0.051,0.02,0.08
			C55.704,65.562,54.981,65.749,54.307,65.749z M60.656,65.472l-0.753,0.248c-0.06,0.02-0.108,0.029-0.148,0.029
			c-0.129,0-0.208-0.188-0.316-0.584c-0.268,0.238-0.732,0.584-1.516,0.584c-0.545,0-1.287-0.246-1.287-1.445v-3.406
			c0-0.139,0.069-0.148,0.188-0.178l0.832-0.168c0.03,0,0.129-0.031,0.158-0.031c0.061,0,0.08,0.041,0.08,0.209v3.148
			c0,0.377,0.049,0.832,0.555,0.832c0.416,0,0.742-0.217,0.871-0.307v-3.506c0-0.139,0.069-0.148,0.188-0.178l0.832-0.168
			c0.029,0,0.128-0.031,0.168-0.031c0.05,0,0.069,0.041,0.069,0.209v3.09c0,1.396,0.188,1.316,0.188,1.545
			C60.765,65.413,60.725,65.452,60.656,65.472z M61.757,45.425c0,0.086-0.043,0.127-0.128,0.127h-0.971v5.92h0.971
			c0.085,0,0.128,0.043,0.128,0.129v0.438c0,0.084-0.043,0.127-0.128,0.127h-2.816c-0.085,0-0.127-0.043-0.127-0.127v-0.438
			c0-0.086,0.042-0.129,0.127-0.129h0.971v-5.92h-0.971c-0.085,0-0.127-0.041-0.127-0.127v-0.438c0-0.086,0.042-0.129,0.127-0.129
			h2.816c0.085,0,0.128,0.043,0.128,0.129V45.425z M66.124,65.403l-0.753,0.307c-0.039,0.01-0.089,0.039-0.128,0.039
			c-0.09,0-0.238-0.346-0.287-0.594c-0.159,0.148-0.595,0.594-1.308,0.594c-1.129,0-1.693-0.91-1.693-2.416
			c0-1.871,0.673-2.813,1.901-2.813c0.534,0,0.763,0.189,0.921,0.297v-2.029c0-0.148,0.069-0.148,0.188-0.178l0.831-0.168
			c0.03,0,0.119-0.031,0.139-0.031c0.08,0,0.1,0.041,0.1,0.209v5.406c0,0.961,0.178,1.09,0.178,1.287
			C66.212,65.354,66.173,65.384,66.124,65.403z M66.985,52.165H66.43c-0.086,0-0.128-0.043-0.128-0.127v-3.563
			c0-0.459-0.118-0.865-0.693-0.865c-0.693,0-1.142,0.416-1.407,0.65v3.777c0,0.084-0.043,0.127-0.129,0.127h-0.555
			c-0.085,0-0.128-0.043-0.128-0.127v-3.68c0-0.354,0-0.471-0.042-0.631c-0.086-0.318-0.171-0.395-0.171-0.447
			c0-0.021,0.011-0.043,0.054-0.074l0.479-0.268c0.021-0.01,0.054-0.043,0.085-0.043c0.192,0,0.32,0.641,0.331,0.727
			c0.352-0.277,0.906-0.727,1.717-0.727c1.185,0,1.27,0.832,1.27,1.602v3.541C67.113,52.122,67.07,52.165,66.985,52.165z
			 M69.244,65.442c0,0.109-0.02,0.139-0.139,0.139h-0.98c-0.119,0-0.139-0.029-0.139-0.139V61.61h-0.763
			c-0.118,0-0.139-0.029-0.139-0.139v-0.643c0-0.109,0.021-0.139,0.139-0.139h1.882c0.119,0,0.139,0.029,0.139,0.139V65.442z
			 M68.61,60.046c-0.456,0-0.822-0.367-0.822-0.822s0.366-0.813,0.822-0.813c0.445,0,0.812,0.357,0.812,0.813
			S69.055,60.046,68.61,60.046z M70.166,52.038c0,0.084-0.042,0.127-0.128,0.127h-0.555c-0.086,0-0.128-0.043-0.128-0.127v-4.332
			h-0.747c-0.074,0-0.074-0.074-0.074-0.127v-0.406c0-0.074,0-0.127,0.074-0.127h0.747v-0.832c0-0.801,0.16-1.771,1.482-1.771
			c0.491,0,1.173,0.215,1.173,0.375c0,0.031-0.031,0.074-0.053,0.148l-0.149,0.352c-0.021,0.033-0.042,0.064-0.075,0.064
			c-0.181,0-0.479-0.225-0.928-0.225c-0.597,0-0.64,0.449-0.64,1.066v0.822h1.536c0.064,0,0.117,0.01,0.117,0.074
			c0,0.021-0.011,0.043-0.011,0.074l-0.139,0.416c-0.021,0.055-0.075,0.096-0.139,0.096h-1.365V52.038z M74.622,63.472h-2.663
			c0,0.555,0.158,1.238,1.089,1.238c0.713,0,1.119-0.326,1.258-0.326c0.05,0,0.089,0.039,0.108,0.078l0.248,0.596
			c0.02,0.029,0.029,0.068,0.029,0.107c0,0.258-0.99,0.584-1.772,0.584c-1.307,0-2.218-0.742-2.218-2.564
			c0-1.574,0.842-2.664,2.169-2.664c1.683,0,1.98,1.506,1.98,2.705C74.85,63.413,74.81,63.472,74.622,63.472z M79.795,60.978
			l-1.614,4.564c-0.04,0.109-0.05,0.129-0.188,0.129H77.18c-0.139,0-0.148-0.02-0.188-0.129l-1.575-4.564
			c-0.01-0.021-0.039-0.1-0.049-0.17c0-0.078,0.069-0.088,0.218-0.107l0.821-0.09c0.03,0,0.139-0.01,0.159-0.01
			c0.079,0,0.108,0.1,0.139,0.197l0.604,2.229c0.109,0.396,0.258,1.07,0.317,1.436h0.02c0.06-0.355,0.218-1.049,0.337-1.436
			l0.673-2.229c0.03-0.107,0.06-0.197,0.139-0.197c0.021,0,0.129,0.01,0.159,0.01l0.673,0.09c0.148,0.02,0.218,0.029,0.218,0.107
			C79.834,60.878,79.805,60.956,79.795,60.978z M80.026,47.687c-0.373,0-0.746,0.555-1.002,0.83v3.521
			c0,0.084-0.043,0.127-0.129,0.127H78.34c-0.085,0-0.127-0.043-0.127-0.127v-3.66c0-0.191-0.033-0.543-0.182-0.811
			c-0.086-0.148-0.117-0.234-0.117-0.266c0.01-0.064,0.053-0.096,0.074-0.107l0.395-0.244c0.043-0.033,0.086-0.055,0.107-0.055
			c0.191,0,0.373,0.662,0.416,0.896c0.276-0.299,0.66-0.896,1.279-0.896c0.245,0,0.522,0.086,0.522,0.182
			c0,0.021-0.021,0.055-0.032,0.086l-0.234,0.543c-0.011,0.021-0.021,0.076-0.064,0.076C80.325,47.782,80.229,47.687,80.026,47.687z
			 M84.302,63.472h-2.663c0,0.555,0.158,1.238,1.089,1.238c0.713,0,1.119-0.326,1.258-0.326c0.05,0,0.089,0.039,0.109,0.078
			l0.247,0.596c0.02,0.029,0.029,0.068,0.029,0.107c0,0.258-0.99,0.584-1.772,0.584c-1.307,0-2.218-0.742-2.218-2.564
			c0-1.574,0.842-2.664,2.169-2.664c1.683,0,1.98,1.506,1.98,2.705C84.531,63.413,84.491,63.472,84.302,63.472z M85.2,52.038
			c0,0.084-0.043,0.127-0.128,0.127h-0.555c-0.085,0-0.128-0.043-0.128-0.127v-3.563c0-0.459-0.117-0.865-0.693-0.865
			c-0.479,0-0.854,0.299-1.034,0.449v3.979c0,0.084-0.043,0.127-0.128,0.127h-0.555c-0.086,0-0.128-0.043-0.128-0.127v-3.66
			c0-0.244-0.011-0.5-0.064-0.746c-0.054-0.244-0.138-0.309-0.138-0.361c0-0.021,0.01-0.043,0.053-0.076l0.459-0.256
			c0.021-0.01,0.063-0.043,0.096-0.043c0.16,0,0.277,0.555,0.287,0.631c0.277-0.256,0.939-0.631,1.387-0.631
			c0.693,0,0.992,0.215,1.131,0.641c0.32-0.234,0.896-0.641,1.408-0.641c1.184,0,1.27,0.832,1.27,1.602v3.541
			c0,0.084-0.043,0.127-0.129,0.127h-0.555c-0.084,0-0.127-0.043-0.127-0.127v-3.563c0-0.459-0.117-0.865-0.684-0.865
			c-0.512,0-0.832,0.289-1.045,0.438V52.038z M88.731,60.849l-0.307,0.832c-0.01,0.029-0.039,0.088-0.079,0.088
			c-0.06,0-0.237-0.109-0.466-0.109c-0.307,0-0.623,0.338-0.752,0.477v3.307c0,0.109-0.021,0.139-0.139,0.139h-0.98
			c-0.119,0-0.139-0.029-0.139-0.139v-2.99c0-1.09-0.258-1.268-0.258-1.496c0-0.039,0.04-0.068,0.089-0.088l0.753-0.307
			c0.04-0.01,0.089-0.041,0.129-0.041c0.119,0,0.316,0.445,0.366,0.783c0.188-0.229,0.555-0.783,1.229-0.783
			c0.287,0,0.574,0.1,0.574,0.229C88.751,60.788,88.742,60.829,88.731,60.849z M93.061,63.472h-2.663
			c0,0.555,0.158,1.238,1.089,1.238c0.713,0,1.119-0.326,1.258-0.326c0.05,0,0.089,0.039,0.108,0.078l0.248,0.596
			c0.02,0.029,0.029,0.068,0.029,0.107c0,0.258-0.99,0.584-1.772,0.584c-1.307,0-2.218-0.742-2.218-2.564
			c0-1.574,0.842-2.664,2.169-2.664c1.683,0,1.98,1.506,1.98,2.705C93.29,63.413,93.25,63.472,93.061,63.472z M93.495,41.114
			c-0.086,0-0.128-0.043-0.128-0.129v-3.563c0-0.459-0.118-0.863-0.693-0.863c-0.693,0-1.142,0.416-1.407,0.65v3.775
			c0,0.086-0.043,0.129-0.129,0.129h-0.555c-0.085,0-0.128-0.043-0.128-0.129v-3.68c0-0.352,0-0.469-0.042-0.629
			c-0.086-0.32-0.171-0.395-0.171-0.447c0-0.021,0.011-0.043,0.054-0.076l0.479-0.266c0.021-0.012,0.054-0.043,0.085-0.043
			c0.192,0,0.32,0.641,0.331,0.725c0.352-0.277,0.906-0.725,1.717-0.725c1.185,0,1.27,0.832,1.27,1.6v3.541
			c0,0.086-0.043,0.129-0.128,0.129H93.495z M94.101,47.579v-0.406c0-0.074,0-0.127,0.075-0.127h0.8v-1.461
			c0-0.064,0.042-0.107,0.117-0.129l0.565-0.16c0.031,0,0.053-0.01,0.074-0.01c0.054,0,0.054,0.053,0.054,0.117v1.643h1.579
			c0.063,0,0.117,0.01,0.117,0.074c0,0.021-0.012,0.043-0.012,0.074l-0.139,0.416c-0.021,0.055-0.074,0.096-0.139,0.096h-1.407
			v3.029c0,0.428,0,0.865,0.64,0.865c0.502,0,0.928-0.289,1.023-0.289c0.043,0,0.075,0.033,0.075,0.064l0.117,0.395
			c0.011,0.043,0.021,0.074,0.021,0.107c0,0.139-0.8,0.438-1.376,0.438c-0.459,0-0.842-0.172-1.002-0.375
			c-0.31-0.33-0.31-0.811-0.31-1.205v-3.029h-0.8C94.101,47.706,94.101,47.632,94.101,47.579z M98.56,65.442
			c0,0.109-0.021,0.139-0.139,0.139h-0.98c-0.119,0-0.139-0.029-0.139-0.139v-3.049c0-0.377-0.05-0.832-0.555-0.832
			c-0.416,0-0.743,0.287-0.871,0.406v3.475c0,0.109-0.021,0.139-0.139,0.139h-0.98c-0.119,0-0.139-0.029-0.139-0.139v-2.99
			c0-1.396-0.188-1.316-0.188-1.545c0-0.049,0.04-0.09,0.109-0.109l0.752-0.246c0.06-0.021,0.109-0.031,0.148-0.031
			c0.129,0,0.208,0.219,0.317,0.684c0.287-0.258,0.732-0.684,1.515-0.684c0.545,0,1.288,0.248,1.288,1.447V65.442z M99.159,52.038
			v-4.332h-0.832c-0.086,0-0.129-0.041-0.129-0.127v-0.406c0-0.084,0.043-0.127,0.129-0.127h1.504c0.117,0,0.139,0.064,0.139,0.16
			v4.832c0,0.084-0.043,0.127-0.129,0.127h-0.555C99.202,52.165,99.159,52.122,99.159,52.038z M101.819,65.442
			c0,0.109-0.02,0.139-0.139,0.139h-0.98c-0.119,0-0.139-0.029-0.139-0.139V61.61h-0.763c-0.118,0-0.139-0.029-0.139-0.139v-0.643
			c0-0.109,0.021-0.139,0.139-0.139h1.882c0.119,0,0.139,0.029,0.139,0.139V65.442z M101.185,60.046
			c-0.456,0-0.822-0.367-0.822-0.822s0.366-0.813,0.822-0.813c0.445,0,0.812,0.357,0.812,0.813S101.63,60.046,101.185,60.046z
			 M101.573,49.765c0-1.781,0.854-2.869,2.165-2.869c0.714,0,1.536,0.502,1.536,0.662c0,0.031-0.021,0.053-0.032,0.086l-0.245,0.447
			c-0.021,0.031-0.032,0.064-0.064,0.064c-0.043,0-0.501-0.545-1.131-0.545c-1.045,0-1.354,0.779-1.354,1.996
			c0,0.969,0.191,1.994,1.227,1.994c0.692,0,1.247-0.438,1.311-0.438c0.033,0,0.043,0.031,0.064,0.064l0.182,0.447
			c0.011,0.031,0.031,0.053,0.031,0.086c0,0.117-0.896,0.555-1.685,0.555C102.309,52.315,101.573,51.323,101.573,49.765z
			 M107.296,65.888c0,1.08-0.535,1.793-1.911,1.793c-0.772,0-2.05-0.316-2.05-0.525c0-0.068,0.01-0.107,0.039-0.197l0.188-0.604
			c0.02-0.07,0.06-0.1,0.108-0.1c0.119,0,0.724,0.387,1.604,0.387c0.693,0,0.813-0.287,0.813-0.842c0-0.348-0.03-0.584-0.03-0.654
			c-0.148,0.1-0.524,0.377-1.198,0.377c-1.108,0-1.693-0.932-1.693-2.416c0-1.596,0.693-2.586,1.872-2.586
			c0.703,0,0.99,0.309,1.179,0.467c0.029-0.09,0.207-0.467,0.346-0.467c0.03,0,0.069,0.01,0.1,0.02l0.772,0.289
			c0.039,0.02,0.089,0.049,0.089,0.088c0,0.129-0.277,0.486-0.277,1.268v1.477C107.247,64.313,107.296,65.333,107.296,65.888z
			 M106.289,50.812c0-1.803,2.134-1.836,2.794-1.857v-0.383c0-0.619-0.191-0.961-0.949-0.961c-0.715,0-1.205,0.342-1.301,0.342
			c-0.032,0-0.064-0.021-0.074-0.053l-0.139-0.373c-0.021-0.055-0.033-0.086-0.033-0.139c0-0.182,0.982-0.492,1.664-0.492
			c1.227,0,1.643,0.598,1.643,1.494v2.09c0,0.672,0.033,0.768,0.129,1.066c0.042,0.129,0.191,0.332,0.191,0.395
			c0,0.043-0.053,0.064-0.096,0.086l-0.416,0.256c-0.043,0.021-0.064,0.033-0.086,0.033c-0.16,0-0.352-0.566-0.404-0.715
			c-0.129,0.117-0.65,0.715-1.536,0.715C106.833,52.315,106.289,51.761,106.289,50.812z M110.388,65.442
			c0,0.109-0.02,0.139-0.139,0.139h-0.98c-0.119,0-0.139-0.029-0.139-0.139V61.61h-0.763c-0.118,0-0.139-0.029-0.139-0.139v-0.643
			c0-0.109,0.021-0.139,0.139-0.139h1.882c0.119,0,0.139,0.029,0.139,0.139V65.442z M109.754,60.046
			c-0.456,0-0.822-0.367-0.822-0.822s0.366-0.813,0.822-0.813c0.445,0,0.812,0.357,0.812,0.813S110.2,60.046,109.754,60.046z
			 M116.063,65.442c0,0.109-0.021,0.139-0.139,0.139h-0.98c-0.119,0-0.139-0.029-0.139-0.139v-3.049c0-0.377-0.05-0.832-0.555-0.832
			c-0.416,0-0.743,0.287-0.871,0.406v3.475c0,0.109-0.021,0.139-0.139,0.139h-0.98c-0.119,0-0.139-0.029-0.139-0.139v-2.99
			c0-1.396-0.188-1.316-0.188-1.545c0-0.049,0.04-0.09,0.109-0.109l0.752-0.246c0.06-0.021,0.109-0.031,0.148-0.031
			c0.129,0,0.208,0.219,0.317,0.684c0.287-0.258,0.732-0.684,1.515-0.684c0.545,0,1.288,0.248,1.288,1.447V65.442z M121.432,65.888
			c0,1.08-0.535,1.793-1.911,1.793c-0.772,0-2.05-0.316-2.05-0.525c0-0.068,0.01-0.107,0.039-0.197l0.188-0.604
			c0.02-0.07,0.06-0.1,0.108-0.1c0.119,0,0.724,0.387,1.604,0.387c0.693,0,0.813-0.287,0.813-0.842c0-0.348-0.03-0.584-0.03-0.654
			c-0.148,0.1-0.524,0.377-1.198,0.377c-1.108,0-1.693-0.932-1.693-2.416c0-1.596,0.693-2.586,1.872-2.586
			c0.703,0,0.99,0.309,1.179,0.467c0.029-0.09,0.207-0.467,0.346-0.467c0.03,0,0.069,0.01,0.1,0.02l0.772,0.289
			c0.039,0.02,0.089,0.049,0.089,0.088c0,0.129-0.277,0.486-0.277,1.268v1.477C121.382,64.313,121.432,65.333,121.432,65.888z"/>
	</g>
</g>
</svg>
